<?xml version="1.0" standalone="no"?><!DOCTYPE svg PUBLIC "-//W3C//DTD SVG 1.1//EN" "http://www.w3.org/Graphics/SVG/1.1/DTD/svg11.dtd"><svg t="1621392583359" class="icon" viewBox="0 0 1024 1024" version="1.1" xmlns="http://www.w3.org/2000/svg" p-id="857" xmlns:xlink="http://www.w3.org/1999/xlink" width="200" height="200"><defs><style type="text/css"></style></defs><path d="M232.96 153.6c16.384 0 30.413 5.632 41.83 16.896 11.47 11.264 17.204 25.14 17.204 41.728v45.312c0 16.589-5.735 30.618-17.204 42.189a56.832 56.832 0 0 1-41.881 17.305h-46.695a55.808 55.808 0 0 1-41.01-17.305A57.651 57.651 0 0 1 128 257.536v-45.312c0-16.589 5.734-30.515 17.203-41.728 11.469-11.264 25.088-16.896 40.96-16.896h46.746z m604.826 0c15.872 0 29.542 5.632 41.01 16.896C890.267 181.76 896 195.636 896 212.224v45.312c0 16.589-5.734 30.618-17.203 42.189a55.808 55.808 0 0 1-40.96 17.305H461.312a56.832 56.832 0 0 1-41.882-17.305 57.651 57.651 0 0 1-17.203-42.189v-45.312c0-16.589 5.735-30.515 17.203-41.728 11.47-11.264 25.396-16.896 41.882-16.896h376.474zM232.96 429.824c16.486 0 30.464 5.786 41.882 17.357 11.468 11.52 17.203 25.6 17.203 42.189v45.26c0 16.026-5.735 29.799-17.203 41.319a56.832 56.832 0 0 1-41.882 17.305h-46.694a55.808 55.808 0 0 1-41.012-17.305 56.576 56.576 0 0 1-17.203-41.319v-45.26c0-16.59 5.735-30.67 17.203-42.19a55.808 55.808 0 0 1 40.96-17.356h46.746z m604.877 0c15.872 0 29.542 5.786 41.011 17.357 11.469 11.52 17.203 25.6 17.203 42.189v45.26c0 16.026-5.734 29.799-17.203 41.319a55.808 55.808 0 0 1-40.96 17.305H461.312a56.832 56.832 0 0 1-41.882-17.305 56.576 56.576 0 0 1-17.203-41.319v-45.26c0-16.59 5.735-30.67 17.203-42.19a56.832 56.832 0 0 1 41.882-17.356h376.474zM232.96 706.97c16.486 0 30.464 5.785 41.882 17.305 11.468 11.571 17.203 25.344 17.203 41.319v45.312c0 16.588-5.735 30.617-17.203 42.188A56.832 56.832 0 0 1 232.96 870.4h-46.694a55.808 55.808 0 0 1-41.012-17.306 57.651 57.651 0 0 1-17.203-42.188v-45.312c0-15.975 5.735-29.748 17.203-41.319a55.808 55.808 0 0 1 40.96-17.305h46.746z m604.877 0c15.872 0 29.542 5.785 41.011 17.305 11.469 11.571 17.203 25.344 17.203 41.319v45.312c0 16.588-5.734 30.617-17.203 42.188a55.808 55.808 0 0 1-40.96 17.306H461.312a56.832 56.832 0 0 1-41.882-17.306 57.651 57.651 0 0 1-17.203-42.188v-45.312c0-15.975 5.735-29.748 17.203-41.319a56.832 56.832 0 0 1 41.882-17.305h376.474z" p-id="858" fill="#ffffff"></path></svg>